# xmcd
#
# Track frame offsets: 
#        150
#        18730
#        32552
#        46952
#        65730
#        83747
#        98442
#        113562
#        130650
#        144172
#        162530
#        177542
#        191787
#        209920
#        225797
#
# Disc length: 3252 seconds
#
# Revision: 2
# Processed by: cddbd v1.5.2PL0 Copyright (c) Steve Scherf et al.
# Submitted via: ExactAudioCopyFreeDBPlugin 1.0
#
DISCID=c90cb20f
DTITLE=五輪真弓 - 五輪真弓全集〜フェイバリット・ソングス Disc 3
DYEAR=1985
DGENRE=Pop
TTITLE0=永遠の海
TTITLE1=雨の中の二人
TTITLE2=約束
TTITLE3=恋人よ
TTITLE4=わたしの気持も知らないで
TTITLE5=愛の蜃気楼
TTITLE6=運命
TTITLE7=リバイバル
TTITLE8=手紙
TTITLE9=マリオネット
TTITLE10=忘れたいの
TTITLE11=さよならの街角
TTITLE12=ジグソーパズル
TTITLE13=行きずり
TTITLE14=問わず煙草
EXTD=
EXTT0=
EXTT1=
EXTT2=
EXTT3=
EXTT4=
EXTT5=
EXTT6=
EXTT7=
EXTT8=
EXTT9=
EXTT10=
EXTT11=
EXTT12=
EXTT13=
EXTT14=
PLAYORDER=
